<?xml version="1.0" encoding="UTF-8" standalone="no"?>
<svg
   inkscape:export-ydpi="576"
   inkscape:export-xdpi="576"
   inkscape:export-filename="/media/taufikramadhan/Data/Tr Design Studio/Project Design/TR Creative Design/Icon Design/Project Hiring/Icon Icons/008 - Weather And Season/Send/4 - Filled Line/24 - Bon Fire.png"
   width="64pt"
   height="64pt"
   viewBox="0 0 22.577778 22.577778"
   version="1.1"
   id="svg831"
   inkscape:version="1.1.1 (1:1.1+202109281943+c3084ef5ed)"
   sodipodi:docname="24 - Bon Fire.svg"
   xmlns:inkscape="http://www.inkscape.org/namespaces/inkscape"
   xmlns:sodipodi="http://sodipodi.sourceforge.net/DTD/sodipodi-0.dtd"
   xmlns="http://www.w3.org/2000/svg"
   xmlns:svg="http://www.w3.org/2000/svg"
   xmlns:rdf="http://www.w3.org/1999/02/22-rdf-syntax-ns#"
   xmlns:cc="http://creativecommons.org/ns#"
   xmlns:dc="http://purl.org/dc/elements/1.1/">
  <defs
     id="defs825">
    <pattern
       id="EMFhbasepattern"
       patternUnits="userSpaceOnUse"
       width="6"
       height="6"
       x="0"
       y="0" />
    <pattern
       id="EMFhbasepattern-9"
       patternUnits="userSpaceOnUse"
       width="6"
       height="6"
       x="0"
       y="0" />
    <pattern
       id="EMFhbasepattern-0"
       patternUnits="userSpaceOnUse"
       width="6"
       height="6"
       x="0"
       y="0" />
    <pattern
       id="EMFhbasepattern-7"
       patternUnits="userSpaceOnUse"
       width="6"
       height="6"
       x="0"
       y="0" />
    <pattern
       id="EMFhbasepattern-2"
       patternUnits="userSpaceOnUse"
       width="6"
       height="6"
       x="0"
       y="0" />
    <pattern
       id="EMFhbasepattern-98"
       patternUnits="userSpaceOnUse"
       width="6"
       height="6"
       x="0"
       y="0" />
    <pattern
       id="EMFhbasepattern-6"
       patternUnits="userSpaceOnUse"
       width="6"
       height="6"
       x="0"
       y="0" />
    <pattern
       id="EMFhbasepattern-01"
       patternUnits="userSpaceOnUse"
       width="6"
       height="6"
       x="0"
       y="0" />
    <pattern
       id="EMFhbasepattern-07"
       patternUnits="userSpaceOnUse"
       width="6"
       height="6"
       x="0"
       y="0" />
    <pattern
       id="EMFhbasepattern-8"
       patternUnits="userSpaceOnUse"
       width="6"
       height="6"
       x="0"
       y="0" />
    <pattern
       id="EMFhbasepattern-4"
       patternUnits="userSpaceOnUse"
       width="6"
       height="6"
       x="0"
       y="0" />
    <pattern
       id="EMFhbasepattern-40"
       patternUnits="userSpaceOnUse"
       width="6"
       height="6"
       x="0"
       y="0" />
    <pattern
       id="EMFhbasepattern-08"
       patternUnits="userSpaceOnUse"
       width="6"
       height="6"
       x="0"
       y="0" />
    <pattern
       id="EMFhbasepattern-04"
       patternUnits="userSpaceOnUse"
       width="6"
       height="6"
       x="0"
       y="0" />
    <pattern
       id="EMFhbasepattern-014"
       patternUnits="userSpaceOnUse"
       width="6"
       height="6"
       x="0"
       y="0" />
    <pattern
       id="EMFhbasepattern-27"
       patternUnits="userSpaceOnUse"
       width="6"
       height="6"
       x="0"
       y="0" />
    <pattern
       id="EMFhbasepattern-09"
       patternUnits="userSpaceOnUse"
       width="6"
       height="6"
       x="0"
       y="0" />
    <pattern
       id="EMFhbasepattern-5"
       patternUnits="userSpaceOnUse"
       width="6"
       height="6"
       x="0"
       y="0" />
    <pattern
       id="EMFhbasepattern-018"
       patternUnits="userSpaceOnUse"
       width="6"
       height="6"
       x="0"
       y="0" />
  </defs>
  <sodipodi:namedview
     id="base"
     pagecolor="#ffffff"
     bordercolor="#666666"
     borderopacity="1.0"
     inkscape:pageopacity="0.0"
     inkscape:pageshadow="2"
     inkscape:zoom="6.28125"
     inkscape:cx="42.666667"
     inkscape:cy="42.666667"
     inkscape:document-units="pt"
     inkscape:current-layer="layer1"
     showgrid="false"
     units="pt"
     inkscape:window-width="1366"
     inkscape:window-height="705"
     inkscape:window-x="0"
     inkscape:window-y="31"
     inkscape:window-maximized="1"
     inkscape:pagecheckerboard="true"
     inkscape:showpageshadow="false"
     inkscape:object-paths="true"
     inkscape:snap-intersection-paths="true"
     inkscape:snap-smooth-nodes="true"
     inkscape:snap-midpoints="true"
     showguides="false"
     inkscape:snap-bbox="true"
     inkscape:bbox-nodes="true"
     inkscape:snap-nodes="false"
     inkscape:snap-global="true"
     inkscape:document-rotation="0">
    <inkscape:grid
       type="xygrid"
       id="grid1378" />
    <sodipodi:guide
       position="0.97013831,21.607643"
       orientation="78.000048,0"
       id="guide1380"
       inkscape:locked="false" />
    <sodipodi:guide
       position="0.97013831,0.97013129"
       orientation="0,78.000005"
       id="guide1382"
       inkscape:locked="false" />
    <sodipodi:guide
       position="21.607639,0.97013129"
       orientation="-78.000048,0"
       id="guide1384"
       inkscape:locked="false" />
    <sodipodi:guide
       position="21.607639,21.607643"
       orientation="0,-78.000005"
       id="guide1386"
       inkscape:locked="false" />
  </sodipodi:namedview>
  <metadata
     id="metadata828">
    <rdf:RDF>
      <cc:Work
         rdf:about="">
        <dc:format>image/svg+xml</dc:format>
        <dc:type
           rdf:resource="http://purl.org/dc/dcmitype/StillImage" />
      </cc:Work>
    </rdf:RDF>
  </metadata>
  <g
     inkscape:label="Icon"
     inkscape:groupmode="layer"
     id="layer1"
     transform="translate(0,-274.42223)">
    <g
       id="g369742"
       transform="matrix(1.2187345,0,0,1.2187345,-110.55369,-140.28462)"
       style="stroke-width:0.820523">
      <path
         style="color:#000000;fill:#9a605c;stroke-width:0.820523;stroke-linecap:round;stroke-linejoin:round;-inkscape-stroke:none"
         d="m 94.833984,351.66406 c -0.455423,0.0173 -0.865941,0.32866 -0.988281,0.78906 -0.142794,0.53684 -0.28689,1.07449 -0.429687,1.61133 -0.150542,0.56654 0.191018,1.15362 0.757812,1.30664 3.207698,0.86609 6.415302,1.73183 9.623052,2.59766 0.56632,0.15285 1.15594,-0.1856 1.30664,-0.75195 l 0.42968,-1.61133 c 0.0358,-0.13471 0.0436,-0.27586 0.0254,-0.41406 a 0.26461097,0.26461097 0 0 0 -0.16992,-0.21289 l -5.32226,-1.95118 a 0.26461097,0.26461097 0 0 0 -0.0234,-0.008 l -4.890626,-1.31836 c -0.10612,-0.0287 -0.213415,-0.041 -0.31836,-0.0371 z"
         id="path327455" />
      <path
         style="color:#000000;fill:#713832;fill-opacity:1;stroke-width:0.820523;stroke-linecap:round;stroke-linejoin:round;-inkscape-stroke:none"
         d="m 104.78516,354.30273 c -0.56888,-0.15337 -1.15861,0.18591 -1.3125,0.75196 l -0.4375,1.60742 c -0.15387,0.56549 0.18689,1.15365 0.7539,1.30664 0.56889,0.15336 1.16056,-0.18396 1.31446,-0.75 l 0.4375,-1.60938 c 0.15386,-0.56548 -0.18885,-1.15366 -0.75586,-1.30664 z"
         id="path327461" />
      <path
         id="path360873"
         style="color:#000000;fill:#361c16;fill-opacity:1;stroke-width:0.820523;stroke-linecap:round;stroke-linejoin:round;-inkscape-stroke:none"
         d="m 99.067069,352.75626 -4.014224,1.08366 c -0.65959,0.17808 -1.109358,0.76816 -1.142566,1.42007 0.08086,0.0477 0.168873,0.0855 0.263549,0.1111 2.237584,0.60416 4.475194,1.20833 6.712772,1.81229 l 4.55372,-1.22938 0.093,-0.3483 c 0.0358,-0.13471 0.0435,-0.27624 0.0253,-0.41444 a 0.26461096,0.26461096 0 0 0 -0.1695,-0.21291 l -5.32267,-1.95079 a 0.26461096,0.26461096 0 0 0 -0.0233,-0.008 z" />
      <path
         style="color:#000000;fill:#915b57;fill-opacity:1;stroke-width:0.820523;stroke-linecap:round;stroke-linejoin:round;-inkscape-stroke:none"
         d="m 104.79883,351.70117 -9.623049,2.59766 c -0.566598,0.15297 -0.908362,0.73995 -0.757812,1.30664 l 0.427734,1.61133 c 0.150695,0.56634 0.740322,0.90479 1.306641,0.75195 l 9.624996,-2.59766 c 0.5666,-0.15297 0.90641,-0.73995 0.75586,-1.30664 l -0.42773,-1.61133 c -0.1507,-0.56634 -0.74033,-0.90478 -1.30664,-0.75195 z"
         id="path327467" />
      <path
         id="path347211"
         style="color:#000000;fill:#552b26;fill-opacity:1;stroke-width:0.820523;stroke-linecap:round;stroke-linejoin:round;-inkscape-stroke:none"
         d="m 105.06445,351.66448 c -0.0879,7.9e-4 -0.17713,0.0128 -0.26562,0.0367 l -9.623184,2.59777 c -0.519314,0.14021 -0.849353,0.64519 -0.784966,1.16479 0.07871,-0.0455 0.164213,-0.0817 0.255799,-0.10645 l 9.623181,-2.59778 c 0.56631,-0.15283 1.1562,0.18556 1.3069,0.7519 l 0.42737,1.61127 c 0.0126,0.0476 0.022,0.0955 0.0279,0.14314 0.40882,-0.23556 0.62764,-0.72576 0.50126,-1.20148 l -0.42736,-1.61127 c -0.12715,-0.47785 -0.56683,-0.79342 -1.04128,-0.78858 z" />
      <path
         style="color:#000000;fill:#713832;fill-opacity:1;stroke-width:0.820523;stroke-linecap:round;stroke-linejoin:round;-inkscape-stroke:none"
         d="m 95.173828,354.30078 c -0.567016,0.15298 -0.909718,0.74116 -0.755859,1.30664 l 0.4375,1.60938 c 0.153893,0.56604 0.74557,0.90335 1.314453,0.75 0.567011,-0.15299 0.909718,-0.74116 0.755859,-1.30664 l -0.439453,-1.60743 c -0.153894,-0.56604 -0.743617,-0.90532 -1.3125,-0.75195 z"
         id="path327477" />
      <path
         style="color:#000000;fill:#dc1d4b;stroke-width:0.820523;stroke-linecap:round;stroke-linejoin:round;-inkscape-stroke:none"
         d="m 99.541016,341.09766 a 0.26460847,0.26460847 0 0 0 -0.353516,0.3457 c 0,0 0.09239,0.21473 0.08594,0.49609 -0.0065,0.28137 -0.0913,0.5982 -0.519531,0.87305 -0.533598,0.34232 -1.220258,0.94973 -1.787109,1.75195 -0.566852,0.80222 -1.011719,1.80244 -1.011719,2.91407 8.5e-5,2.20092 1.987663,3.96093 4.398439,3.96093 2.41075,0 4.39837,-1.76001 4.39843,-3.96093 0,-0.12573 -0.005,-0.2468 -0.0137,-0.36719 a 0.26460847,0.26460847 0 0 0 -0.4707,-0.14649 c -0.18445,0.22914 -0.496,0.38612 -0.85547,0.38672 -0.3033,-1.1e-4 -0.58597,-0.10514 -0.75,-0.26562 -0.16404,-0.16048 -0.24288,-0.35829 -0.14648,-0.69141 0.39012,-1.34725 0.30787,-2.39974 -0.22852,-3.24414 -0.53639,-0.8444 -1.48172,-1.45665 -2.746091,-2.05273 z"
         id="path327487" />
      <path
         id="path344394"
         style="color:#000000;fill:#b11e48;fill-opacity:1;stroke-width:0.820523;stroke-linecap:round;stroke-linejoin:round;-inkscape-stroke:none"
         d="m 102.2871,343.15024 c -0.54729,-0.84646 -1.42379,-1.37653 -2.287198,-1.82779 -0.1479,-0.0754 -0.30084,-0.15029 -0.458886,-0.22479 -0.0602,-0.0227 -0.08438,-0.0219 -0.11394,-0.0246 -0.184793,10e-4 -0.316195,0.19369 -0.239263,0.37052 l 0.06232,0.22074 c 0.07838,-0.0726 0.193983,-0.0818 0.291146,-0.0373 0.836971,0.45957 1.708521,0.79975 2.216921,1.52342 0.53639,0.8444 0.61853,1.897 0.2284,3.24425 -0.2098,0.85864 0.76896,1.47741 1.42576,1.48621 0.1478,-2.4e-4 0.28741,-0.027 0.41339,-0.0743 0.24452,-0.0918 0.39459,-0.0448 0.35499,0.21545 -0.28332,1.86216 -2.00118,3.29807 -4.0917,3.41054 0.0876,0.005 0.17576,0.007 0.26459,0.007 2.32078,0 4.24863,-1.63124 4.3894,-3.71657 0.017,-0.20659 0.005,-0.41317 -0.005,-0.61186 -0.004,-0.0444 -0.0165,-0.0865 -0.0419,-0.12456 -0.11227,-0.15814 -0.29768,-0.16746 -0.42896,-0.0217 -0.23371,0.24283 -0.56388,0.38184 -0.85527,0.38653 -0.57784,-0.0279 -1.06789,-0.34069 -0.89664,-0.95718 0.26044,-0.92593 0.32601,-1.88717 0.0253,-2.74655 -0.0736,-0.17125 -0.16483,-0.33394 -0.25383,-0.49771 z"
         sodipodi:nodetypes="ccccccccccccsccccccccc" />
      <path
         style="color:#000000;fill:#b11e48;fill-opacity:1;stroke-width:0.820523;stroke-linecap:round;stroke-linejoin:round;-inkscape-stroke:none"
         d="m 94.792969,348.54297 c -0.442315,0 -0.806641,0.36432 -0.806641,0.80664 0,0.44231 0.364326,0.80664 0.806641,0.80664 0.442314,0 0.80664,-0.36433 0.80664,-0.80664 0,-0.44232 -0.364326,-0.80664 -0.80664,-0.80664 z"
         id="path327501" />
      <path
         style="color:#000000;fill:#b11e48;fill-opacity:1;stroke-width:0.820523;stroke-linecap:round;stroke-linejoin:round;-inkscape-stroke:none"
         d="m 104.75195,344.19336 c -0.44231,0 -0.80664,0.36433 -0.80664,0.80664 0,0.44231 0.36433,0.80664 0.80664,0.80664 0.44232,0 0.80664,-0.36433 0.80664,-0.80664 0,-0.44231 -0.36432,-0.80664 -0.80664,-0.80664 z"
         id="path327507" />
      <path
         id="path354437"
         style="color:#000000;fill:#552b26;fill-opacity:1;stroke-width:0.820523;stroke-linecap:round;stroke-linejoin:round;-inkscape-stroke:none"
         d="m 95.439962,354.26408 c -0.08816,7.9e-4 -0.177247,0.0127 -0.266134,0.0367 -0.318709,0.086 -0.566423,0.30945 -0.69505,0.58911 0.05277,-0.0241 0.10818,-0.0444 0.165883,-0.06 0.568881,-0.15337 1.158687,0.18586 1.312579,0.7519 l 0.439251,1.60765 c 0.06738,0.24764 0.03924,0.49938 -0.06098,0.71727 0.465772,-0.21272 0.728347,-0.7385 0.590145,-1.24644 l -0.439251,-1.60765 c -0.129847,-0.4776 -0.570365,-0.79357 -1.046445,-0.78858 z" />
    </g>
    <path
       id="path46567"
       style="color:#000000;fill:#000000;stroke-width:1;stroke-linecap:round;stroke-linejoin:round;-inkscape-stroke:none"
       d="m 10.610827,275.39219 c -0.210174,0.009 -0.376752,0.23085 -0.280892,0.45156 0,0 0.112409,0.2617 0.104546,0.6046 -0.0079,0.34292 -0.111676,0.72939 -0.6335755,1.06436 -0.6503149,0.4172 -1.4870033,1.15732 -2.1778446,2.13502 -0.6908412,0.97769 -1.2331459,2.19666 -1.2331459,3.55144 1.032e-4,2.68233 2.4227505,4.8274 5.360845,4.8274 2.938066,0 5.360143,-2.14507 5.360216,-4.8274 0,-0.15323 -0.0057,-0.30107 -0.01638,-0.44779 -0.02073,-0.29297 -0.39045,-0.40773 -0.573748,-0.17824 -0.224794,0.27926 -0.604216,0.47036 -1.042315,0.47109 -0.369643,-1.3e-4 -0.714558,-0.12813 -0.914469,-0.32371 -0.19992,-0.19558 -0.295719,-0.43668 -0.178232,-0.84267 0.475454,-1.64194 0.375347,-2.92478 -0.278371,-3.95388 -0.957474,-1.29956 -2.240001,-1.97126 -3.34675,-2.50156 -0.05043,-0.0233 -0.10139,-0.0323 -0.149891,-0.0302 z m 0.46416,1.04672 c 1.067223,0.57442 2.047695,1.13852 2.487075,1.8302 0.543288,0.85525 0.649622,1.89398 0.204686,3.4305 -0.171405,0.59234 -0.0073,1.13793 0.345129,1.48254 0.352238,0.34464 0.852785,0.5068 1.364144,0.507 0.397744,0 0.671097,-0.25962 0.980594,-0.4522 -0.02451,2.27418 -2.094921,4.14471 -4.705855,4.14471 -2.626472,0 -4.715212,-1.88999 -4.715299,-4.18249 0,-1.18135 0.4792805,-2.27939 1.1160005,-3.18049 0.6367201,-0.90109 1.4320405,-1.59958 1.9996095,-1.96371 0.539074,-0.36668 0.975493,-0.99145 0.923916,-1.61606 z m 6.010797,2.75663 c -0.527627,0.0135 -0.957923,0.45248 -0.957923,0.98312 0,0.53905 0.444058,0.98311 0.983115,0.98311 0.539071,0 0.983117,-0.44406 0.983117,-0.98311 0,-0.53906 -0.444046,-0.98312 -0.983117,-0.98312 -0.0084,0 -0.01679,-2.2e-4 -0.02518,0 z m 0.02518,0.6449 c 0.190525,0 0.338202,0.14769 0.338202,0.33822 0,0.19052 -0.147677,0.33756 -0.338202,0.33756 -0.190524,0 -0.337574,-0.14704 -0.337574,-0.33756 0,-0.19053 0.14705,-0.33822 0.337574,-0.33822 z m -8.4877959,0.83323 c -0.094776,0.006 -0.1818785,0.0543 -0.2380634,0.131 -1.3706577,1.85406 -0.2645146,4.10377 -0.2645146,4.10377 0.078463,0.15942 0.271112,0.22532 0.430783,0.14737 0.160377,-0.0775 0.2274965,-0.27044 0.1498908,-0.43078 0,0 -0.9171995,-1.92245 0.2027963,-3.43745 0.1063395,-0.14384 0.075248,-0.34676 -0.06928,-0.45218 -0.061096,-0.0448 -0.1360155,-0.0667 -0.2116122,-0.0618 z m 3.1275799,1.76155 c -0.09401,-3.2e-4 -0.183478,0.0403 -0.24499,0.11151 0,0 -0.453487,0.53111 -0.909431,1.1878 -0.227971,0.32834 -0.457899,0.69022 -0.635466,1.04295 -0.1775706,0.35272 -0.3142697,0.68887 -0.3142697,1.03035 0,0.14358 0.014639,0.28293 0.042825,0.41881 0.035051,0.17612 0.2072237,0.28968 0.3829177,0.25256 0.175097,-0.0362 0.28727,-0.20804 0.250033,-0.38293 -0.01928,-0.093 -0.03086,-0.18889 -0.03086,-0.28844 0,-0.14464 0.08877,-0.43222 0.244993,-0.74254 0.156221,-0.31032 0.371148,-0.65156 0.588232,-0.96422 0.311961,-0.44931 0.474592,-0.63008 0.626018,-0.8137 0.151477,0.1837 0.311677,0.36457 0.623502,0.8137 0.217091,0.31266 0.433902,0.6539 0.590119,0.96422 0.156219,0.31032 0.243105,0.5979 0.243105,0.74254 0,0.0994 -0.0096,0.1955 -0.02835,0.28844 -0.03723,0.17489 0.07494,0.34668 0.250029,0.38293 0.174023,0.0357 0.344115,-0.0762 0.380399,-0.25004 0.02828,-0.136 0.04283,-0.27782 0.04283,-0.42133 0,-0.34148 -0.134193,-0.67763 -0.311751,-1.03035 -0.177567,-0.35273 -0.407488,-0.71461 -0.635465,-1.04295 -0.455942,-0.65669 -0.909429,-1.1878 -0.909429,-1.1878 -0.06151,-0.0711 -0.150984,-0.11176 -0.244993,-0.11151 z m -6.8018241,2.06133 c -0.5276329,0.0135 -0.9579226,0.45246 -0.9579226,0.98311 0,0.53906 0.4440521,0.98312 0.9831162,0.98312 0.5390639,0 0.9831161,-0.44406 0.9831161,-0.98312 0,-0.53907 -0.4440522,-0.98311 -0.9831161,-0.98311 -0.00842,0 -0.0168,-2.1e-4 -0.025184,0 z m 0.025184,0.64491 c 0.1905268,0 0.3375736,0.14768 0.3375704,0.3382 0,0.19053 -0.1470436,0.33758 -0.3375704,0.33758 -0.1905269,0 -0.3382024,-0.14705 -0.3382024,-0.33758 0,-0.19052 0.1476755,-0.3382 0.3382024,-0.3382 z m 0.097617,3.15781 c -0.016058,-2e-5 -0.031891,3e-5 -0.047866,6.4e-4 -0.5550385,0.0211 -1.0550724,0.4006 -1.2041732,0.96171 -0.1740268,0.65426 -0.3499624,1.30944 -0.5239924,1.96371 -0.1834714,0.69047 0.2327364,1.40603 0.9232842,1.59276 l 0.2601067,0.0706 c 0.00648,0.0715 0.018767,0.14373 0.037788,0.21539 l 0.5214739,1.96371 c 0.1836552,0.69022 0.9019376,1.10264 1.5921306,0.91636 l 0.013221,-0.004 c 0.00258,-3.3e-4 0.00548,-9.7e-4 0.00819,-10e-4 0.015252,-0.004 0.030343,-0.009 0.045347,-0.0133 l 4.5893413,-1.23819 4.630277,1.24827 c 0.0038,9.6e-4 0.0076,0.002 0.01133,0.004 3.23e-4,1.1e-4 9.68e-4,6.4e-4 0.0013,6.4e-4 l 0.01764,0.005 c 0.690197,0.18627 1.409098,-0.22612 1.592763,-0.91635 l 0.523361,-1.96371 c 0.01873,-0.0706 0.03082,-0.1429 0.03716,-0.2154 l 0.260736,-0.0706 c 0.690535,-0.18641 1.104247,-0.9021 0.920765,-1.59275 l -0.520842,-1.96371 c -0.183665,-0.69022 -0.902579,-1.10261 -1.592762,-0.91635 l -5.874129,1.58583 -5.8823186,-1.58583 c -0.1131668,-0.0306 -0.2276126,-0.0458 -0.340092,-0.046 z m 12.4605651,0.64429 c 0.28026,0.01 0.528716,0.19975 0.604606,0.48494 l 0.523992,1.9612 c 0.09409,0.35397 -0.112757,0.71115 -0.4692,0.8074 l -10.6196579,2.8662 c 0.053183,-0.19399 0.062031,-0.40303 0.016994,-0.61027 l 3.2000069,-0.86346 c 0.172563,-0.0469 0.273982,-0.22573 0.226097,-0.39802 -0.04692,-0.17136 -0.223366,-0.27245 -0.394884,-0.2261 l -1.0693956,0.28908 c -0.05672,-0.37913 0.1871152,-0.75103 0.5976766,-0.83386 l 2.708764,-0.73308 c 0.172331,-0.0458 0.274807,-0.22327 0.228618,-0.39551 -0.04692,-0.17137 -0.223359,-0.27245 -0.394884,-0.2261 l -2.670974,0.72112 c -0.7670906,0.15474 -1.233576,0.91148 -1.093333,1.63558 l -1.5064765,0.40685 -0.3829175,-1.39941 c -0.06305,-0.2319 -0.1858646,-0.43273 -0.3476508,-0.59013 l 10.6454838,-2.87313 c 0.0663,-0.0179 0.132452,-0.0256 0.197128,-0.0233 z m -12.4360036,0.001 c 0.048414,10e-4 0.096947,0.009 0.1467437,0.0221 l 4.8116619,1.29865 -1.8768016,0.50698 -2.632557,-0.706 c -0.1722404,-0.0462 -0.3496464,0.0563 -0.3955126,0.22862 -0.046189,0.17224 0.056288,0.34902 0.2286154,0.39488 l 1.5600108,0.41692 -1.4334207,0.3867 c -0.021637,0.005 -0.043254,0.01 -0.064868,0.0151 -0.011992,0.004 -0.023765,0.007 -0.035268,0.0126 -0.3787224,0.11371 -0.6709747,0.38825 -0.8206301,0.72805 l -0.1958668,-0.0523 c -0.3564051,-0.0964 -0.5631708,-0.45374 -0.4692004,-0.8074 0.1740266,-0.65425 0.3474407,-1.30692 0.5214739,-1.96118 0.075916,-0.28569 0.3283578,-0.47248 0.607125,-0.48306 0.016123,-6.5e-4 0.032359,-0.001 0.048495,-6.5e-4 z m 11.1342096,1.18403 c -0.02809,1.4e-4 -0.05604,0.004 -0.08313,0.011 l -1.794927,0.48054 c -0.172556,0.0458 -0.275043,0.22313 -0.228616,0.39552 0.04582,0.17224 0.222695,0.27464 0.394884,0.22862 l 1.794924,-0.48369 c 0.172244,-0.0458 0.274643,-0.22269 0.228619,-0.39489 -0.03839,-0.14044 -0.166146,-0.23775 -0.311751,-0.23743 z M 5.7708017,292.1093 c 0.2962185,-0.004 0.564422,0.19102 0.6455424,0.48936 l 0.5334404,1.95929 c 0.09534,0.35043 -0.1078324,0.70354 -0.4622709,0.79734 -0.00258,9.6e-4 -0.00503,10e-4 -0.00754,0.002 l -0.015736,0.005 c -0.3536191,0.0954 -0.7089568,-0.11066 -0.802363,-0.46164 l -0.5214739,-1.96119 c -0.094038,-0.35396 0.110187,-0.71115 0.4666821,-0.80741 l 0.013221,-0.004 c 0.050513,-0.0122 0.1008576,-0.0184 0.1505229,-0.0189 z m 11.6323793,0.96675 -0.484945,1.82452 c -0.09335,0.35104 -0.448119,0.55708 -0.801735,0.46164 l -0.0082,-0.002 c -0.0052,-10e-4 -0.01036,-0.002 -0.01573,-0.005 -0.354445,-0.0938 -0.559504,-0.4469 -0.464164,-0.79732 l 0.296006,-1.08263 z m -2.201145,0.59452 -0.195238,0.71797 c -0.06214,0.22839 -0.05745,0.46031 0.0013,0.67452 l -2.482047,-0.67013 z"
       sodipodi:nodetypes="scccscsscccscccsscsccccscsccsssssssssssscccccsccccssscccssscssscccsssccssssssssssssccccccccccccccscccccccccccccscccccccccccccccccccssscccccccccccccccsssccccccssccccccccccccccccccccccccc" />
  </g>
</svg>
